<?xml version="1.0" encoding="UTF-8"?> <svg xmlns="http://www.w3.org/2000/svg" viewBox="0 0 179.2 37.4"><g fill="#0000"><path d="m8.8.5h3.7l8.8 20.3h-5.1l-1.7-4.3h-7.9l-1.7 4.3h-4.9zm1.7 5.9-2.5 6.3h5z"></path><path d="m48.1 5.8c-.4-.5-1-.9-1.6-1.2s-1.4-.4-2.2-.4-1.6.2-2.3.5-1.3.8-1.9 1.4c-.5.6-.9 1.3-1.2 2.1s-.4 1.7-.4 2.6c0 1 .1 1.8.4 2.6s.7 1.5 1.2 2.1 1.1 1 1.8 1.4c.7.3 1.4.5 2.2.5.9 0 1.7-.2 2.4-.6s1.3-.9 1.8-1.6l3.7 2.8c-.9 1.2-2 2.1-3.3 2.7s-2.7.9-4.1.9c-1.6 0-3-.2-4.4-.7-1.3-.5-2.5-1.2-3.5-2.1s-1.7-2.1-2.3-3.4c-.5-1.3-.8-2.8-.8-4.4s.3-3.1.8-4.4 1.3-2.4 2.3-3.4c1-.9 2.1-1.6 3.5-2.1 1.5-.9 2.9-1.1 4.5-1.1.6 0 1.2.1 1.8.2s1.2.3 1.8.5 1.2.5 1.7.9c.6.4 1.1.8 1.6 1.4z"></path><path d="m66.1.5h13.8v4.1h-9.3v3.8h8.8v4.2h-8.8v4.1h9.9v4.1h-14.4z"></path><path d="m95.5.5h6.1l8.6 14.1h.1v-14.1h4.5v20.3h-5.9l-8.8-14.4h-.1v14.4h-4.5z"></path><path d="m134.3 4.5h-5.8v-4h16.1v4h-5.8v16.3h-4.5z"></path><path d="m157.2 10.7c0-1.6.3-3.1.8-4.4s1.3-2.4 2.3-3.4c1-.9 2.1-1.6 3.5-2.1 1.3-.5 2.8-.7 4.4-.7s3 .2 4.4.7c1.3.5 2.5 1.2 3.5 2.1s1.7 2.1 2.3 3.4c.5 1.3.8 2.8.8 4.4s-.3 3.1-.8 4.4-1.3 2.4-2.3 3.4c-1 .9-2.1 1.6-3.5 2.1-1.3.5-2.8.7-4.4.7s-3.1-.2-4.4-.7-2.5-1.2-3.5-2.1-1.7-2.1-2.3-3.4c-.5-1.3-.8-2.8-.8-4.4zm4.7 0c0 1 .2 1.8.4 2.6.3.8.7 1.5 1.3 2.1s1.2 1 2 1.4c.8.3 1.6.5 2.6.5s1.8-.2 2.6-.5 1.4-.8 2-1.4 1-1.3 1.3-2.1.4-1.7.4-2.6-.2-1.8-.4-2.6c-.3-.8-.7-1.5-1.3-2.1s-1.2-1-2-1.4c-.8-.3-1.6-.5-2.6-.5s-1.8.2-2.6.5-1.4.8-2 1.4-1 1.3-1.3 2.1-.4 1.6-.4 2.6z"></path><path d="m89.6 30.4h5.9l-7 7h-3.8z"></path><path d="m101.6 32.6h34.4v2.6h-34.4z"></path><path d="m44.2 32.6h34.4v2.6h-34.4z"></path></g></svg> 